<?xml version="1.0" encoding="UTF-8" standalone="no"?>
<!DOCTYPE svg PUBLIC "-//W3C//DTD SVG 1.1//EN"
 "http://www.w3.org/Graphics/SVG/1.1/DTD/svg11.dtd">
<!-- Generated by graphviz version 2.47.3 (20210619.1520)
 -->
<!-- Title: dependencies Pages: 1 -->
<svg width="541pt" height="174pt"
 viewBox="0.00 0.00 541.00 173.80" xmlns="http://www.w3.org/2000/svg" xmlns:xlink="http://www.w3.org/1999/xlink">
<g id="graph0" class="graph" transform="scale(1 1) rotate(0) translate(4 169.8)">
<title>dependencies</title>
<polygon fill="white" stroke="transparent" points="-4,4 -4,-169.8 537,-169.8 537,4 -4,4"/>
<text text-anchor="middle" x="266.5" y="-8.2" font-family="sans-serif" font-size="14.00">dependencies</text>
<g id="clust1" class="cluster">
<title>cluster_AppModule</title>
<polygon fill="none" stroke="black" stroke-dasharray="1,5" points="8,-32.8 8,-157.8 525,-157.8 525,-32.8 8,-32.8"/>
</g>
<g id="clust6" class="cluster">
<title>cluster_AppModule_providers</title>
<polygon fill="none" stroke="black" points="387,-40.8 387,-92.8 517,-92.8 517,-40.8 387,-40.8"/>
</g>
<g id="clust3" class="cluster">
<title>cluster_AppModule_imports</title>
<polygon fill="none" stroke="black" points="16,-40.8 16,-92.8 379,-92.8 379,-40.8 16,-40.8"/>
</g>
<!-- KafkaModule -->
<g id="node1" class="node">
<title>KafkaModule</title>
<polygon fill="#8dd3c7" stroke="black" points="370.75,-84.8 367.75,-88.8 346.75,-88.8 343.75,-84.8 277.25,-84.8 277.25,-48.8 370.75,-48.8 370.75,-84.8"/>
<text text-anchor="middle" x="324" y="-62.6" font-family="Times,serif" font-size="14.00">KafkaModule</text>
</g>
<!-- AppModule -->
<g id="node4" class="node">
<title>AppModule</title>
<polygon fill="#8dd3c7" stroke="black" points="303.66,-149.8 300.66,-153.8 279.66,-153.8 276.66,-149.8 220.34,-149.8 220.34,-113.8 303.66,-113.8 303.66,-149.8"/>
<text text-anchor="middle" x="262" y="-127.6" font-family="Times,serif" font-size="14.00">AppModule</text>
</g>
<!-- KafkaModule&#45;&gt;AppModule -->
<g id="edge1" class="edge">
<title>KafkaModule&#45;&gt;AppModule</title>
<path fill="none" stroke="black" d="M290.48,-84.91C290.48,-84.91 290.48,-103.79 290.48,-103.79"/>
<polygon fill="black" stroke="black" points="286.98,-103.79 290.48,-113.79 293.98,-103.79 286.98,-103.79"/>
</g>
<!-- StarkbankModule -->
<g id="node2" class="node">
<title>StarkbankModule</title>
<polygon fill="#8dd3c7" stroke="black" points="259.31,-84.8 256.31,-88.8 235.31,-88.8 232.31,-84.8 142.69,-84.8 142.69,-48.8 259.31,-48.8 259.31,-84.8"/>
<text text-anchor="middle" x="201" y="-62.6" font-family="Times,serif" font-size="14.00">StarkbankModule</text>
</g>
<!-- StarkbankModule&#45;&gt;AppModule -->
<g id="edge2" class="edge">
<title>StarkbankModule&#45;&gt;AppModule</title>
<path fill="none" stroke="black" d="M239.66,-84.91C239.66,-84.91 239.66,-103.79 239.66,-103.79"/>
<polygon fill="black" stroke="black" points="236.16,-103.79 239.66,-113.79 243.16,-103.79 236.16,-103.79"/>
</g>
<!-- UploadModule -->
<g id="node3" class="node">
<title>UploadModule</title>
<polygon fill="#8dd3c7" stroke="black" points="124.26,-84.8 121.26,-88.8 100.26,-88.8 97.26,-84.8 23.74,-84.8 23.74,-48.8 124.26,-48.8 124.26,-84.8"/>
<text text-anchor="middle" x="74" y="-62.6" font-family="Times,serif" font-size="14.00">UploadModule</text>
</g>
<!-- UploadModule&#45;&gt;AppModule -->
<g id="edge3" class="edge">
<title>UploadModule&#45;&gt;AppModule</title>
<path fill="none" stroke="black" d="M74,-84.91C74,-104.14 74,-131.8 74,-131.8 74,-131.8 210.28,-131.8 210.28,-131.8"/>
<polygon fill="black" stroke="black" points="210.28,-135.3 220.28,-131.8 210.28,-128.3 210.28,-135.3"/>
</g>
<!-- AppService -->
<g id="node5" class="node">
<title>AppService</title>
<ellipse fill="#fdb462" stroke="black" cx="452" cy="-66.8" rx="56.74" ry="18"/>
<text text-anchor="middle" x="452" y="-62.6" font-family="Times,serif" font-size="14.00">AppService</text>
</g>
<!-- AppService&#45;&gt;AppModule -->
<g id="edge4" class="edge">
<title>AppService&#45;&gt;AppModule</title>
<path fill="none" stroke="black" d="M452,-84.91C452,-104.14 452,-131.8 452,-131.8 452,-131.8 313.7,-131.8 313.7,-131.8"/>
<polygon fill="black" stroke="black" points="313.7,-128.3 303.7,-131.8 313.7,-135.3 313.7,-128.3"/>
</g>
</g>
</svg>
