<?xml version="1.0" encoding="UTF-8" standalone="no"?>
<!DOCTYPE svg PUBLIC "-//W3C//DTD SVG 1.1//EN"
 "http://www.w3.org/Graphics/SVG/1.1/DTD/svg11.dtd">
<!-- Generated by graphviz version 2.47.3 (20210619.1520)
 -->
<!-- Title: dependencies Pages: 1 -->
<svg width="842pt" height="185pt"
 viewBox="0.00 0.00 842.00 184.80" xmlns="http://www.w3.org/2000/svg" xmlns:xlink="http://www.w3.org/1999/xlink">
<g id="graph0" class="graph" transform="scale(1 1) rotate(0) translate(4 180.8)">
<title>dependencies</title>
<polygon fill="white" stroke="transparent" points="-4,4 -4,-180.8 838,-180.8 838,4 -4,4"/>
<text text-anchor="middle" x="417" y="-8.2" font-family="sans-serif" font-size="14.00">dependencies</text>
<g id="clust1" class="cluster">
<title>cluster_AppModule</title>
<polygon fill="none" stroke="black" stroke-dasharray="1,5" points="8,-32.8 8,-160.8 524,-160.8 524,-32.8 8,-32.8"/>
</g>
<g id="clust3" class="cluster">
<title>cluster_AppModule_imports</title>
<polygon fill="none" stroke="black" points="154,-40.8 154,-92.8 516,-92.8 516,-40.8 154,-40.8"/>
</g>
<g id="clust6" class="cluster">
<title>cluster_AppModule_providers</title>
<polygon fill="none" stroke="black" points="16,-40.8 16,-92.8 146,-92.8 146,-40.8 16,-40.8"/>
</g>
<g id="clust19" class="cluster">
<title>cluster_UploadModule</title>
<polygon fill="none" stroke="black" stroke-dasharray="1,5" points="532,-100.8 532,-168.8 826,-168.8 826,-100.8 532,-100.8"/>
</g>
<g id="clust22" class="cluster">
<title>cluster_UploadModule_exports</title>
<polygon fill="none" stroke="black" points="700,-108.8 700,-160.8 818,-160.8 818,-108.8 700,-108.8"/>
</g>
<g id="clust24" class="cluster">
<title>cluster_UploadModule_providers</title>
<polygon fill="none" stroke="black" points="540,-108.8 540,-160.8 692,-160.8 692,-108.8 540,-108.8"/>
</g>
<!-- KafkaModule -->
<g id="node1" class="node">
<title>KafkaModule</title>
<polygon fill="#8dd3c7" stroke="black" points="389.75,-84.8 386.75,-88.8 365.75,-88.8 362.75,-84.8 296.25,-84.8 296.25,-48.8 389.75,-48.8 389.75,-84.8"/>
<text text-anchor="middle" x="343" y="-62.6" font-family="Times,serif" font-size="14.00">KafkaModule</text>
</g>
<!-- AppModule -->
<g id="node4" class="node">
<title>AppModule</title>
<polygon fill="#8dd3c7" stroke="black" points="322.66,-152.8 319.66,-156.8 298.66,-156.8 295.66,-152.8 239.34,-152.8 239.34,-116.8 322.66,-116.8 322.66,-152.8"/>
<text text-anchor="middle" x="281" y="-130.6" font-family="Times,serif" font-size="14.00">AppModule</text>
</g>
<!-- KafkaModule&#45;&gt;AppModule -->
<g id="edge1" class="edge">
<title>KafkaModule&#45;&gt;AppModule</title>
<path fill="none" stroke="black" d="M309.48,-85.02C309.48,-85.02 309.48,-106.53 309.48,-106.53"/>
<polygon fill="black" stroke="black" points="305.98,-106.53 309.48,-116.53 312.98,-106.53 305.98,-106.53"/>
</g>
<!-- StarkbankModule -->
<g id="node2" class="node">
<title>StarkbankModule</title>
<polygon fill="#8dd3c7" stroke="black" points="278.31,-84.8 275.31,-88.8 254.31,-88.8 251.31,-84.8 161.69,-84.8 161.69,-48.8 278.31,-48.8 278.31,-84.8"/>
<text text-anchor="middle" x="220" y="-62.6" font-family="Times,serif" font-size="14.00">StarkbankModule</text>
</g>
<!-- StarkbankModule&#45;&gt;AppModule -->
<g id="edge2" class="edge">
<title>StarkbankModule&#45;&gt;AppModule</title>
<path fill="none" stroke="black" d="M258.66,-85.02C258.66,-85.02 258.66,-106.53 258.66,-106.53"/>
<polygon fill="black" stroke="black" points="255.16,-106.53 258.66,-116.53 262.16,-106.53 255.16,-106.53"/>
</g>
<!-- UploadModule -->
<g id="node3" class="node">
<title>UploadModule</title>
<polygon fill="#8dd3c7" stroke="black" points="508.26,-84.8 505.26,-88.8 484.26,-88.8 481.26,-84.8 407.74,-84.8 407.74,-48.8 508.26,-48.8 508.26,-84.8"/>
<text text-anchor="middle" x="458" y="-62.6" font-family="Times,serif" font-size="14.00">UploadModule</text>
</g>
<!-- UploadModule&#45;&gt;AppModule -->
<g id="edge3" class="edge">
<title>UploadModule&#45;&gt;AppModule</title>
<path fill="none" stroke="black" d="M441.21,-85.07C441.21,-103.36 441.21,-128.8 441.21,-128.8 441.21,-128.8 332.67,-128.8 332.67,-128.8"/>
<polygon fill="black" stroke="black" points="332.67,-125.3 322.67,-128.8 332.67,-132.3 332.67,-125.3"/>
</g>
<!-- UploadService  -->
<g id="node6" class="node">
<title>UploadService </title>
<polygon fill="#fb8072" stroke="black" points="810.19,-152.8 707.81,-152.8 707.81,-116.8 810.19,-116.8 810.19,-152.8"/>
<text text-anchor="middle" x="759" y="-130.6" font-family="Times,serif" font-size="14.00">UploadService </text>
</g>
<!-- UploadModule&#45;&gt;UploadService  -->
<g id="edge5" class="edge">
<title>UploadModule&#45;&gt;UploadService </title>
<path fill="none" stroke="black" stroke-dasharray="5,2" d="M508.38,-66.8C594.07,-66.8 759,-66.8 759,-66.8 759,-66.8 759,-106.58 759,-106.58"/>
<polygon fill="black" stroke="black" points="755.5,-106.58 759,-116.58 762.5,-106.58 755.5,-106.58"/>
</g>
<!-- AppService -->
<g id="node5" class="node">
<title>AppService</title>
<ellipse fill="#fdb462" stroke="black" cx="81" cy="-66.8" rx="56.74" ry="18"/>
<text text-anchor="middle" x="81" y="-62.6" font-family="Times,serif" font-size="14.00">AppService</text>
</g>
<!-- AppService&#45;&gt;AppModule -->
<g id="edge4" class="edge">
<title>AppService&#45;&gt;AppModule</title>
<path fill="none" stroke="black" d="M81,-85.02C81,-105.17 81,-134.8 81,-134.8 81,-134.8 229.07,-134.8 229.07,-134.8"/>
<polygon fill="black" stroke="black" points="229.07,-138.3 239.07,-134.8 229.07,-131.3 229.07,-138.3"/>
</g>
<!-- UploadService -->
<g id="node7" class="node">
<title>UploadService</title>
<ellipse fill="#fdb462" stroke="black" cx="616" cy="-134.8" rx="68.34" ry="18"/>
<text text-anchor="middle" x="616" y="-130.6" font-family="Times,serif" font-size="14.00">UploadService</text>
</g>
<!-- UploadService&#45;&gt;UploadModule -->
<g id="edge6" class="edge">
<title>UploadService&#45;&gt;UploadModule</title>
<path fill="none" stroke="black" d="M551.18,-140.8C514.06,-140.8 474.79,-140.8 474.79,-140.8 474.79,-140.8 474.79,-95.09 474.79,-95.09"/>
<polygon fill="black" stroke="black" points="478.29,-95.09 474.79,-85.09 471.29,-95.09 478.29,-95.09"/>
</g>
</g>
</svg>
